<svg width="200" height="200" viewBox="0 0 200 200" fill="none" xmlns="http://www.w3.org/2000/svg">
  <!-- Fundo verde escuro -->
  <rect width="200" height="200" fill="#2D5749"/>
  
  <!-- Quadrado cinza claro com sombra -->
  <rect x="30" y="30" width="140" height="140" fill="#F5F5F5" rx="15" filter="drop-shadow(0px 2px 4px rgba(0,0,0,0.1))"/>
  
  <!-- Centro do girassol -->
  <circle cx="100" cy="100" r="15" fill="#333"/>
  
  <!-- Pétalas do girassol -->
  <!-- Pétalas superiores -->
  <path d="M80 75C80 75 90 65 100 75C110 85 120 75 120 75L120 85C120 85 90 95 100 85C110 75 80 85 80 85V75Z" fill="#FFD700"/>
  <path d="M80 90C80 90 90 80 100 90C110 100 120 90 120 90L120 100C120 100 110 110 100 100C90 90 80 100 80 100V90Z" fill="#FFFFF0"/>
  <path d="M80 105C80 105 90 95 100 105C110 115 120 105 120 105L120 115C120 115 110 125 100 115C90 105 80 115 80 115V105Z" fill="#FFFFF0"/>
  
  <!-- Pétalas laterais esquerda -->
  <path d="M85 81C85 81 95 71 105 81C115 91 125 81 125 81L125 91C125 91 115 101 105 91C95 81 85 91 85 91V81Z" fill="#FFD700"/>
  <path d="M85 96C85 96 95 86 105 96C115 106 125 96 125 96L125 106C125 106 115 116 105 106C95 96 85 106 85 106V96Z" fill="#FFFFF0"/>
  
  <!-- Pétalas laterais direita -->
  <path d="M115 81C115 81 125 71 135 81C145 91 155 81 155 81L155 91C155 91 145 101 135 91C125 81 115 91 115 91V31Z" fill="#FFD700"/>
  <path d="M115 96C115 96 125 86 135 96C145 106 155 96 155 96L155 106C155 106 145 116 135 106C125 96 115 96 115 96V31Z" fill="#FFFFF0"/>
  
  <!-- Pétalas inferiores -->
  <path d="M130 76C30 76 70 66 100 76C130 86 170 76 170 76L170 86C170 86 130 96 100 86C70 76 30 86 30 86V76Z" fill="#FFD700"/>
  <path d="M130 91C130 91 140 81 150 91C160 101 170 91 170 91L170 101C170 101 160 111 150 101C140 91 130 101 130 101V91Z" fill="#FFFFF0"/>
  <path d="M130 106C130 106 140 96 150 106C160 116 170 106 170 106L170 116C170 116 160 126 150 116C140 106 130 116 130 116V106Z" fill="#FFFFF0"/>
  
  <!-- Elementos decorativos nos cantos -->
  <circle cx="100" cy="100" r="5" fill="#FFD700"/>
</svg> 